<svg width="80" height="80" viewBox="0 0 80 80" xmlns="http://www.w3.org/2000/svg">
  <defs>
    <linearGradient id="renGradient" x1="0%" y1="0%" x2="100%" y2="100%">
      <stop offset="0%" style="stop-color:#F56565;stop-opacity:1" />
      <stop offset="100%" style="stop-color:#E53E3E;stop-opacity:1" />
    </linearGradient>
  </defs>
  
  <!-- Background circle -->
  <circle cx="40" cy="40" r="38" fill="url(#renGradient)" stroke="#C53030" stroke-width="2"/>
  
  <!-- Face -->
  <circle cx="40" cy="35" r="20" fill="#FFE4C4"/>
  
  <!-- Modern spiky hair -->
  <path d="M20 30 L25 20 L30 25 L35 18 L40 22 L45 15 L50 23 L55 19 L60 30 Q55 25 40 25 Q25 25 20 30" fill="#FF6B35"/>
  
  <!-- Eyes (anime style) -->
  <circle cx="35" cy="32" r="3" fill="#2D3748"/>
  <circle cx="45" cy="32" r="3" fill="#2D3748"/>
  <circle cx="36" cy="31" r="1" fill="#FFFFFF"/>
  <circle cx="46" cy="31" r="1" fill="#FFFFFF"/>
  
  <!-- Big smile -->
  <path d="M33 40 Q40 47 47 40" stroke="#2D3748" stroke-width="2" fill="none"/>
  
  <!-- Body/Hoodie -->
  <rect x="26" y="50" width="28" height="25" rx="8" fill="#F56565"/>
  
  <!-- Hood -->
  <path d="M28 50 Q40 45 52 50" stroke="#C53030" stroke-width="2" fill="none"/>
  
  <!-- Trendy badge -->
  <circle cx="50" cy="62" r="4" fill="#FFD700"/>
  <text x="50" y="65" text-anchor="middle" font-size="6" fill="#2D3748">若</text>
</svg>