<svg width="80" height="80" viewBox="0 0 80 80" xmlns="http://www.w3.org/2000/svg">
  <defs>
    <linearGradient id="yukiGradient" x1="0%" y1="0%" x2="100%" y2="100%">
      <stop offset="0%" style="stop-color:#9F7AEA;stop-opacity:1" />
      <stop offset="100%" style="stop-color:#805AD5;stop-opacity:1" />
    </linearGradient>
  </defs>
  
  <!-- Background circle -->
  <circle cx="40" cy="40" r="38" fill="url(#yukiGradient)" stroke="#553C9A" stroke-width="2"/>
  
  <!-- Face -->
  <circle cx="40" cy="35" r="20" fill="#FFE4C4"/>
  
  <!-- Hair (short, professional) -->
  <path d="M24 32 Q40 18 56 32 Q52 22 40 24 Q28 22 24 32" fill="#2D3748"/>
  
  <!-- Glasses -->
  <circle cx="35" cy="32" r="5" fill="none" stroke="#2D3748" stroke-width="1"/>
  <circle cx="45" cy="32" r="5" fill="none" stroke="#2D3748" stroke-width="1"/>
  <line x1="40" y1="32" x2="40" y2="32" stroke="#2D3748" stroke-width="1"/>
  
  <!-- Eyes behind glasses -->
  <circle cx="35" cy="32" r="2" fill="#2D3748"/>
  <circle cx="45" cy="32" r="2" fill="#2D3748"/>
  
  <!-- Serious mouth -->
  <line x1="37" y1="42" x2="43" y2="42" stroke="#2D3748" stroke-width="1"/>
  
  <!-- Body/Business suit -->
  <rect x="28" y="50" width="24" height="25" rx="3" fill="#2D3748"/>
  
  <!-- Tie -->
  <rect x="38" y="52" width="4" height="15" fill="#9F7AEA"/>
  
  <!-- Strict teacher badge -->
  <circle cx="50" cy="58" r="4" fill="#FFD700"/>
  <text x="50" y="61" text-anchor="middle" font-size="6" fill="#2D3748">厳</text>
</svg>